<svg id="Layer_1" data-name="Layer 1" xmlns="http://www.w3.org/2000/svg" viewBox="0 0 372.91 87.41"><defs><style>.cls-1{fill:#fff;}</style></defs><title>logo-white</title><path class="cls-1" d="M87.87,247.14h-.36a7.72,7.72,0,0,0-2.34-5.34,7.28,7.28,0,0,0-5.34-2.22H78.27v-1.2h9.6Zm0,66.52v8.76h-9.6v-1.2h1.56A7.28,7.28,0,0,0,85.17,319a7.72,7.72,0,0,0,2.34-5.34Zm17.65-75.28v84h-18v-84Zm-.36,8.76v-8.76h9.61v1.2h-1.56a7.28,7.28,0,0,0-5.34,2.22,7.69,7.69,0,0,0-2.35,5.34Zm32.06,70.12,2.88,5.16H105.16v-5.16ZM146,297.81l-5.52,24.61H116.93l4.32-5.16a22.89,22.89,0,0,0,10.57-2.34,22.24,22.24,0,0,0,7.8-6.73,35.49,35.49,0,0,0,5.16-10.38Z" transform="translate(-78.27 -236.7)"/><path class="cls-1" d="M198,236.7q14.42,0,25,5.34a39.13,39.13,0,0,1,16.45,15.07q5.82,9.72,5.83,23.29t-5.83,23.23A39,39,0,0,1,223,318.76q-10.62,5.34-25,5.34t-25-5.34a38.8,38.8,0,0,1-16.39-15.07q-5.76-9.72-5.76-23.29t5.76-23.23A38.69,38.69,0,0,1,172.94,242Q183.56,236.7,198,236.7Zm0,82.36a23.23,23.23,0,0,0,14.65-4.74,30.36,30.36,0,0,0,9.48-13.39,64.22,64.22,0,0,0,0-41.06,30.42,30.42,0,0,0-9.48-13.39,24.92,24.92,0,0,0-29.24,0,30.2,30.2,0,0,0-9.54,13.39,64.4,64.4,0,0,0,0,41.06,30.15,30.15,0,0,0,9.54,13.39A23.31,23.31,0,0,0,198,319.06Z" transform="translate(-78.27 -236.7)"/><path class="cls-1" d="M341.09,288.8v19.81a34.38,34.38,0,0,1-8.59,7.21,54.16,54.16,0,0,1-13.62,5.94,62.27,62.27,0,0,1-17.65,2.34q-13.69,0-23.9-5.34a38.43,38.43,0,0,1-15.85-15.19q-5.64-9.84-5.64-23.29t5.58-23.17a38,38,0,0,1,16-15.07q10.39-5.34,24.56-5.34a89.85,89.85,0,0,1,12.84.9,96.07,96.07,0,0,1,11.53,2.34,40.15,40.15,0,0,1,8.76,3.36l.24,20.53h-1.08a32.55,32.55,0,0,0-6.6-13,24.71,24.71,0,0,0-10-7,34.61,34.61,0,0,0-12.06-2.1q-9.74,0-16.51,4.74A28.74,28.74,0,0,0,278.83,260q-3.42,8.76-3.42,21a57.82,57.82,0,0,0,3.18,20.11,28.4,28.4,0,0,0,9.31,13.21,24.58,24.58,0,0,0,14.89,4.74,27,27,0,0,0,8.58-1.38,21.76,21.76,0,0,0,7.26-4,14.53,14.53,0,0,0,4.45-6.49l.12-18.37q0-5.4-6.13-5.4h-1.92v-1.2h33.74v1.2h-1.8C342.93,283.4,340.92,285.2,341.09,288.8Z" transform="translate(-78.27 -236.7)"/><path class="cls-1" d="M403.88,236.7q14.4,0,25,5.34a39.13,39.13,0,0,1,16.45,15.07q5.82,9.72,5.82,23.29t-5.82,23.23a39,39,0,0,1-16.45,15.13q-10.62,5.34-25,5.34t-25-5.34a38.8,38.8,0,0,1-16.39-15.07q-5.76-9.72-5.77-23.29t5.77-23.23A38.69,38.69,0,0,1,378.85,242Q389.47,236.7,403.88,236.7Zm0,82.36a23.25,23.25,0,0,0,14.65-4.74A30.36,30.36,0,0,0,428,300.93a64.4,64.4,0,0,0,0-41.06,30.42,30.42,0,0,0-9.48-13.39,24.92,24.92,0,0,0-29.24,0,30.2,30.2,0,0,0-9.54,13.39q-3.37,8.64-3.37,20.53t3.37,20.53a30.15,30.15,0,0,0,9.54,13.39A23.29,23.29,0,0,0,403.88,319.06Z" transform="translate(-78.27 -236.7)"/></svg>